<svg width="300" height="300" viewBox="0 0 300 300" fill="none" xmlns="http://www.w3.org/2000/svg">
    <circle cx="150" cy="150" r="145" fill="#fff" stroke="#8B0000" stroke-width="2"/>

    <circle cx="150" cy="140" r="60" stroke="#8B0000" stroke-width="4"/>
    <circle cx="150" cy="140" r="40" fill="#8B0000" fill-opacity="0.1"/>

    <path d="M90 100 V160 M100 100 V160 M110 100 V160 M90 160 C90 175 110 175 110 160 M100 175 V220" stroke="#333333" stroke-width="4" stroke-linecap="round" stroke-linejoin="round"/>

    <path d="M200 100 C185 100 185 140 200 140 C215 140 215 100 200 100 Z M200 140 V220" stroke="#333333" stroke-width="4" stroke-linecap="round" stroke-linejoin="round"/>
    
    <path d="M140 70 Q150 50 160 70" stroke="#8B0000" stroke-width="3" stroke-linecap="round"/>
    <path d="M150 60 Q160 40 170 60" stroke="#8B0000" stroke-width="3" stroke-linecap="round"/>

    <text x="150" y="260" font-family="Arial, sans-serif" font-size="24" font-weight="bold" fill="#8B0000" text-anchor="middle">NHÀ HÀNG VIỆT</text>
    <text x="150" y="285" font-family="Arial, sans-serif" font-size="14" fill="#333333" text-anchor="middle">Hương vị truyền thống</text>
</svg>